<?xml version="1.0" encoding="utf-8"?>
<!-- Generator: Adobe Illustrator 16.0.0, SVG Export Plug-In . SVG Version: 6.00 Build 0)  -->
<!DOCTYPE svg PUBLIC "-//W3C//DTD SVG 1.1//EN" "http://www.w3.org/Graphics/SVG/1.1/DTD/svg11.dtd">
<svg version="1.1" id="Layer_1" xmlns="http://www.w3.org/2000/svg" xmlns:xlink="http://www.w3.org/1999/xlink" x="0px" y="0px"
	 width="275.364px" height="279.402px" viewBox="0 0 275.364 279.402" style="enable-background:new 0 0 275.364 279.402;"
	 xml:space="preserve">
<g>
	<g>
		<path style="fill-rule:evenodd;clip-rule:evenodd;fill:#371818;" d="M77.404,233.601H71.34c-0.348,0-0.522,0.174-0.522,0.521
			v14.936c0,0.349,0.174,0.522,0.522,0.522h2.112c0.348,0,0.522-0.174,0.522-0.522v-4.696c0-0.183,0.099-0.273,0.298-0.273h3.131
			c1.292,0,2.294-0.353,3.007-1.056c0.712-0.705,1.068-1.703,1.068-2.995v-2.386c0-1.293-0.356-2.291-1.068-2.994
			C79.698,233.953,78.696,233.601,77.404,233.601z M78.323,239.888c0,0.514-0.108,0.883-0.323,1.105
			c-0.216,0.225-0.588,0.336-1.119,0.336h-2.634c-0.183,0-0.273-0.091-0.273-0.273v-4.448c0-0.183,0.09-0.273,0.273-0.273h2.634
			c0.53,0,0.903,0.112,1.119,0.335c0.215,0.225,0.323,0.602,0.323,1.131V239.888z M99.969,248.984l-2.659-5.542v-0.099
			c1.474-0.613,2.211-1.855,2.211-3.729v-1.938c0-1.292-0.365-2.294-1.093-3.007c-0.729-0.712-1.74-1.068-3.032-1.068h-5.915
			c-0.348,0-0.522,0.174-0.522,0.521v14.936c0,0.349,0.174,0.522,0.522,0.522h2.112c0.348,0,0.522-0.174,0.522-0.522v-5.094
			c0-0.183,0.1-0.273,0.298-0.273h1.665l2.485,5.367c0.083,0.216,0.19,0.357,0.323,0.423c0.133,0.066,0.348,0.1,0.646,0.1h2.013
			C99.977,249.581,100.118,249.381,99.969,248.984z M96.366,239.74c0,0.496-0.125,0.857-0.373,1.08
			c-0.249,0.225-0.638,0.336-1.168,0.336h-2.436c-0.183,0-0.273-0.091-0.273-0.273v-4.274c0-0.183,0.091-0.273,0.273-0.273h2.436
			c0.53,0,0.919,0.116,1.168,0.349c0.249,0.231,0.373,0.604,0.373,1.117V239.74z M119.154,249.058l-3.927-14.936
			c-0.083-0.348-0.332-0.521-0.746-0.521h-3.305c-0.381,0-0.63,0.174-0.746,0.521l-3.926,14.936c-0.1,0.349,0,0.522,0.298,0.522
			h2.385c0.166,0,0.286-0.038,0.361-0.112c0.074-0.074,0.128-0.211,0.161-0.41l0.696-2.733h4.846l0.696,2.733
			c0.033,0.199,0.083,0.336,0.149,0.41s0.19,0.112,0.373,0.112h2.386C119.154,249.581,119.253,249.407,119.154,249.058z
			 M111.003,243.791l1.79-7.183h0.099l1.789,7.183H111.003z M126.237,246.349c-0.216,0.266-0.323,0.672-0.323,1.219v1.49
			c0,0.349,0.174,0.522,0.522,0.522h9.518c0.331,0,0.497-0.19,0.497-0.571v-1.889c0-0.314-0.166-0.473-0.497-0.473h-6.313v-0.1
			l6.188-8.996c0.249-0.364,0.373-0.795,0.373-1.293v-2.137c0-0.348-0.166-0.521-0.497-0.521h-8.822
			c-0.348,0-0.522,0.174-0.522,0.521v1.889c0,0.348,0.174,0.521,0.522,0.521h5.939v0.1L126.237,246.349z M130.884,232.01h1.615
			c0.232,0,0.414-0.091,0.547-0.272l1.566-2.61c0.115-0.215,0.049-0.323-0.199-0.323h-1.466c-0.216,0-0.365,0.1-0.448,0.299
			l-0.795,1.641l-0.82-1.641c-0.066-0.199-0.208-0.299-0.422-0.299h-1.466c-0.249,0-0.315,0.108-0.199,0.323l1.541,2.61
			C130.469,231.919,130.652,232.01,130.884,232.01z M144.9,249.581h2.112c0.348,0,0.521-0.174,0.521-0.522v-14.936
			c0-0.348-0.174-0.521-0.521-0.521H144.9c-0.349,0-0.522,0.174-0.522,0.521v14.936C144.377,249.407,144.551,249.581,144.9,249.581z
			 M149.174,228.804h-2.461c-0.314,0-0.563,0.158-0.744,0.473l-1.094,2.212c-0.166,0.348-0.084,0.521,0.248,0.521h1.615
			c0.266,0,0.488-0.107,0.671-0.323l2.013-2.386c0.116-0.132,0.15-0.248,0.1-0.348C149.473,228.855,149.356,228.804,149.174,228.804
			z M164.209,243.442v-0.099c1.475-0.613,2.212-1.855,2.212-3.729v-1.938c0-1.292-0.364-2.294-1.094-3.007
			c-0.729-0.712-1.739-1.068-3.032-1.068h-5.914c-0.348,0-0.521,0.174-0.521,0.521v14.936c0,0.349,0.174,0.522,0.521,0.522h2.112
			c0.349,0,0.522-0.174,0.522-0.522v-5.094c0-0.183,0.099-0.273,0.297-0.273h1.666l2.484,5.367c0.084,0.216,0.191,0.357,0.324,0.423
			c0.132,0.066,0.348,0.1,0.646,0.1h2.013c0.431,0,0.572-0.199,0.423-0.597L164.209,243.442z M163.265,239.74
			c0,0.496-0.124,0.857-0.373,1.08c-0.248,0.225-0.638,0.336-1.168,0.336h-2.435c-0.184,0-0.273-0.091-0.273-0.273v-4.274
			c0-0.183,0.09-0.273,0.273-0.273h2.435c0.53,0,0.92,0.116,1.168,0.349c0.249,0.231,0.373,0.604,0.373,1.117V239.74z
			 M183.395,249.581h1.814c0.348,0,0.521-0.174,0.521-0.522v-14.936c0-0.348-0.174-0.521-0.521-0.521h-2.063
			c-0.348,0-0.522,0.174-0.522,0.521v9.245h-0.099l-5.021-9.419c-0.115-0.232-0.348-0.348-0.695-0.348h-1.863
			c-0.349,0-0.522,0.174-0.522,0.521v14.936c0,0.349,0.174,0.522,0.522,0.522h2.063c0.348,0,0.521-0.174,0.521-0.522v-9.22h0.1
			l4.971,9.245C182.764,249.416,183.03,249.581,183.395,249.581z M202.356,249.058c0.033,0.199,0.082,0.336,0.149,0.41
			c0.065,0.074,0.19,0.112,0.372,0.112h2.387c0.298,0,0.396-0.174,0.298-0.522l-3.927-14.936c-0.083-0.348-0.332-0.521-0.746-0.521
			h-3.305c-0.381,0-0.63,0.174-0.746,0.521l-3.926,14.936c-0.1,0.349,0,0.522,0.299,0.522h2.385c0.166,0,0.286-0.038,0.36-0.112
			c0.075-0.074,0.128-0.211,0.161-0.41l0.696-2.733h4.847L202.356,249.058z M197.411,243.791l1.789-7.183h0.1l1.789,7.183H197.411z
			 M38.636,263.422H36.3c-0.332,0-0.531,0.175-0.597,0.522l-2.609,12.227h-0.1l-2.609-12.227c-0.066-0.348-0.265-0.522-0.596-0.522
			h-2.336c-0.447,0-0.613,0.19-0.497,0.571l3.852,14.887c0.066,0.348,0.273,0.521,0.621,0.521h3.255
			c0.315,0,0.514-0.174,0.597-0.521l3.852-14.887C39.216,263.613,39.05,263.422,38.636,263.422z M56.678,263.422h-2.634
			c-0.282,0-0.481,0.175-0.597,0.522l-2.435,6.039h-0.174l-2.485-6.039c-0.133-0.348-0.332-0.522-0.597-0.522h-2.634
			c-0.149,0-0.261,0.054-0.335,0.161c-0.074,0.108-0.079,0.236-0.012,0.386l4.548,9.593v5.318c0,0.348,0.174,0.521,0.521,0.521
			h2.113c0.348,0,0.522-0.174,0.522-0.521v-5.318l4.547-9.593c0.083-0.165,0.087-0.298,0.013-0.397S56.844,263.422,56.678,263.422z
			 M49.943,261.832h1.615c0.265,0,0.489-0.107,0.671-0.322l2.013-2.386c0.1-0.133,0.125-0.249,0.075-0.349
			c-0.05-0.099-0.158-0.148-0.323-0.148h-2.46c-0.315,0-0.563,0.157-0.746,0.473l-1.094,2.211
			C49.512,261.658,49.596,261.832,49.943,261.832z M72.533,271.201c1.309-0.414,1.963-1.324,1.963-2.733v-1.019
			c0-1.293-0.356-2.287-1.068-2.982c-0.713-0.695-1.724-1.044-3.032-1.044h-5.964c-0.348,0-0.521,0.175-0.521,0.522v14.936
			c0,0.348,0.174,0.521,0.521,0.521h6.213c1.292,0,2.294-0.348,3.007-1.043c0.712-0.696,1.069-1.69,1.069-2.982v-1.491
			c0-0.812-0.199-1.438-0.597-1.876C73.726,271.57,73.196,271.3,72.533,271.201z M67.066,266.33c0-0.182,0.091-0.272,0.273-0.272
			h2.56c0.53,0,0.916,0.111,1.156,0.335c0.24,0.225,0.36,0.593,0.36,1.105v0.97c0,0.514-0.124,0.882-0.373,1.106
			c-0.249,0.224-0.638,0.335-1.168,0.335h-2.535c-0.183,0-0.273-0.091-0.273-0.272V266.33z M71.664,275.327
			c0,0.514-0.121,0.882-0.36,1.105c-0.24,0.224-0.634,0.336-1.181,0.336h-2.783c-0.183,0-0.273-0.091-0.273-0.273v-3.753
			c0-0.182,0.091-0.273,0.273-0.273h2.734c0.563,0,0.969,0.108,1.218,0.323c0.248,0.216,0.373,0.58,0.373,1.094V275.327z
			 M87.419,260.565l-0.82-1.641c-0.083-0.198-0.232-0.298-0.447-0.298H84.71c-0.249,0-0.315,0.107-0.199,0.322l1.541,2.609
			c0.132,0.184,0.314,0.273,0.547,0.273h1.615c0.232,0,0.414-0.09,0.547-0.273l1.565-2.609c0.116-0.215,0.05-0.322-0.199-0.322
			h-1.466c-0.215,0-0.365,0.1-0.447,0.298L87.419,260.565z M91.321,263.422h-8.126c-0.348,0-0.522,0.175-0.522,0.522v14.936
			c0,0.348,0.174,0.521,0.522,0.521h8.126c0.331,0,0.497-0.174,0.497-0.521v-1.689c0-0.349-0.166-0.522-0.497-0.522h-5.194
			c-0.199,0-0.298-0.091-0.298-0.273v-3.454c0-0.182,0.1-0.273,0.298-0.273h4.25c0.348,0,0.522-0.174,0.522-0.521v-1.69
			c0-0.348-0.174-0.522-0.522-0.522h-4.25c-0.199,0-0.298-0.09-0.298-0.273v-3.23c0-0.182,0.1-0.273,0.298-0.273h5.194
			c0.331,0,0.497-0.174,0.497-0.521v-1.689C91.818,263.597,91.652,263.422,91.321,263.422z M107.896,273.263v-0.099
			c1.475-0.612,2.212-1.855,2.212-3.728v-1.939c0-1.291-0.365-2.294-1.094-3.006c-0.729-0.713-1.739-1.069-3.032-1.069h-5.915
			c-0.348,0-0.522,0.175-0.522,0.522v14.936c0,0.348,0.174,0.521,0.522,0.521h2.112c0.348,0,0.522-0.174,0.522-0.521v-5.095
			c0-0.183,0.099-0.273,0.298-0.273h1.665l2.485,5.368c0.083,0.215,0.19,0.356,0.323,0.422c0.132,0.066,0.348,0.1,0.646,0.1h2.013
			c0.43,0,0.571-0.199,0.422-0.596L107.896,273.263z M106.952,269.561c0,0.497-0.125,0.857-0.373,1.081
			c-0.249,0.224-0.638,0.336-1.168,0.336h-2.436c-0.183,0-0.273-0.092-0.273-0.273v-4.275c0-0.182,0.091-0.273,0.273-0.273h2.436
			c0.53,0,0.919,0.117,1.168,0.349c0.248,0.231,0.373,0.604,0.373,1.118V269.561z M124.746,263.422h-2.783
			c-1.309,0-2.32,0.349-3.032,1.044s-1.068,1.699-1.068,3.007v7.878c0,1.309,0.356,2.312,1.068,3.008
			c0.712,0.695,1.723,1.043,3.032,1.043h2.783c1.309,0,2.319-0.348,3.032-1.043c0.712-0.696,1.069-1.699,1.069-3.008v-7.878
			c0-1.308-0.356-2.312-1.069-3.007S126.054,263.422,124.746,263.422z M125.69,275.203c0,0.529-0.112,0.906-0.335,1.131
			c-0.224,0.223-0.601,0.335-1.131,0.335h-1.764c-0.531,0-0.903-0.112-1.119-0.335c-0.215-0.225-0.323-0.602-0.323-1.131v-7.58
			c0-0.53,0.107-0.907,0.323-1.131s0.588-0.336,1.119-0.336h1.764c0.53,0,0.907,0.112,1.131,0.336s0.335,0.601,0.335,1.131V275.203z
			 M147.26,263.422h-2.336c-0.331,0-0.53,0.175-0.596,0.522l-2.609,12.227h-0.1l-2.609-12.227c-0.066-0.348-0.266-0.522-0.597-0.522
			h-2.336c-0.447,0-0.613,0.19-0.497,0.571l3.852,14.887c0.066,0.348,0.273,0.521,0.621,0.521h3.256
			c0.314,0,0.514-0.174,0.597-0.521l3.853-14.887C147.84,263.613,147.674,263.422,147.26,263.422z M163.364,263.422h-8.126
			c-0.348,0-0.521,0.175-0.521,0.522v14.936c0,0.348,0.174,0.521,0.521,0.521h8.126c0.332,0,0.498-0.174,0.498-0.521v-1.689
			c0-0.349-0.166-0.522-0.498-0.522h-5.193c-0.199,0-0.299-0.091-0.299-0.273v-3.454c0-0.182,0.1-0.273,0.299-0.273h4.25
			c0.348,0,0.521-0.174,0.521-0.521v-1.69c0-0.348-0.174-0.522-0.521-0.522h-4.25c-0.199,0-0.299-0.09-0.299-0.273v-3.23
			c0-0.182,0.1-0.273,0.299-0.273h5.193c0.332,0,0.498-0.174,0.498-0.521v-1.689C163.862,263.597,163.696,263.422,163.364,263.422z
			 M159.786,261.832c0.266,0,0.488-0.107,0.671-0.322l2.013-2.386c0.116-0.133,0.149-0.249,0.1-0.349
			c-0.049-0.099-0.166-0.148-0.348-0.148h-2.461c-0.314,0-0.563,0.157-0.745,0.473l-1.093,2.211
			c-0.166,0.348-0.084,0.521,0.248,0.521H159.786z M188.663,270.531l4.722-6.537c0.132-0.165,0.178-0.302,0.137-0.41
			c-0.042-0.107-0.153-0.161-0.335-0.161h-2.436c-0.432,0-0.754,0.175-0.97,0.522l-3.777,5.541
			c-0.382,0.631-0.638,1.144-0.771,1.541h-0.05v-7.082c0-0.348-0.174-0.522-0.521-0.522h-2.112c-0.348,0-0.521,0.175-0.521,0.522
			v14.936c0,0.348,0.174,0.521,0.521,0.521h2.112c0.348,0,0.521-0.174,0.521-0.521v-4.25l1.565-1.839l3.803,6.089
			c0.199,0.348,0.588,0.521,1.168,0.521h1.814c0.231,0,0.385-0.053,0.459-0.162c0.074-0.107,0.055-0.26-0.062-0.459L188.663,270.531
			z M208.569,263.945c-0.084-0.348-0.332-0.522-0.746-0.522h-3.305c-0.382,0-0.631,0.175-0.746,0.522l-3.926,14.936
			c-0.1,0.348,0,0.521,0.297,0.521h2.387c0.165,0,0.285-0.037,0.359-0.111c0.075-0.074,0.129-0.211,0.162-0.41l0.695-2.734h4.847
			l0.696,2.734c0.033,0.199,0.082,0.336,0.148,0.41s0.19,0.111,0.373,0.111h2.386c0.298,0,0.397-0.174,0.298-0.521L208.569,263.945z
			 M204.344,273.612l1.789-7.183h0.1l1.789,7.183H204.344z M206.878,258.626c-0.315,0-0.556,0.157-0.721,0.473l-1.118,2.211
			c-0.166,0.348-0.083,0.521,0.248,0.521h1.641c0.248,0,0.464-0.107,0.646-0.322l2.013-2.386c0.116-0.133,0.149-0.249,0.1-0.349
			c-0.05-0.099-0.166-0.148-0.349-0.148H206.878z M230.115,263.422h-2.336c-0.332,0-0.53,0.175-0.597,0.522l-2.609,12.227h-0.1
			l-2.609-12.227c-0.066-0.348-0.266-0.522-0.596-0.522h-2.337c-0.446,0-0.612,0.19-0.497,0.571l3.853,14.887
			c0.065,0.348,0.272,0.521,0.621,0.521h3.255c0.315,0,0.514-0.174,0.598-0.521l3.852-14.887
			C230.694,263.613,230.528,263.422,230.115,263.422z M248.157,263.422h-2.635c-0.281,0-0.48,0.175-0.596,0.522l-2.436,6.039h-0.174
			l-2.485-6.039c-0.133-0.348-0.331-0.522-0.597-0.522H236.6c-0.148,0-0.26,0.054-0.335,0.161c-0.074,0.108-0.079,0.236-0.013,0.386
			l4.549,9.593v5.318c0,0.348,0.174,0.521,0.521,0.521h2.111c0.349,0,0.522-0.174,0.522-0.521v-5.318l4.548-9.593
			c0.083-0.165,0.087-0.298,0.013-0.397C248.442,263.472,248.322,263.422,248.157,263.422z M275.364,134.028
			c-8.086-1.009-16.826-1.91-26.113-2.69l-4.484,52.056l-18.623,8.664c15.934,0.908,30.707,2.15,43.906,3.669l-10.081-31.662
			L275.364,134.028z M72.631,26.358c0-22.821,131.219-23.229,131.219,0v82.472c2.727,0.153,5.451,0.319,8.178,0.498V24.433
			c0-32.663-147.575-32.492-147.575,0v85.269c2.727-0.196,5.452-0.378,8.178-0.547V26.358z M184.366,61.663
			c-0.031-1.784-0.92-2.981-2.357,0.055c-4.586,9.692-20.453-1.412-25.467,5.669c-1.06,1.491-1.375,3.776,0.785,5.467
			C166.166,79.764,184.604,74.2,184.366,61.663z M150.919,36.689c0.253-4.6-2.356-8.572-7.683-7.888
			c-9.391,1.208-17.951,9.917-21.203,19.707c-0.776-2.038-1.898-3.881-3.379-5.375c-2.135-2.155-4.603-1.514-6.104-0.158
			c-7.126,6.422,7.122,22.41-2.928,28.699c-3.147,1.973-1.718,2.791,0.243,2.597c6.013-0.593,10.113-4.911,12.104-10.322
			c0.855,2.187,2.146,4.246,3.94,6.082c1.882,1.931,4.305,1.666,3.687-2.163C126.969,51.628,150.097,51.697,150.919,36.689z
			 M170.846,90.818h4.559c0.578,0,0.867-0.29,0.867-0.865v-1.576c0-0.257-0.08-0.466-0.242-0.627
			c-0.156-0.157-0.365-0.237-0.625-0.237h-8.162c-0.256,0-0.465,0.081-0.627,0.237c-0.156,0.161-0.236,0.37-0.236,0.627v14.728
			c0,0.256,0.08,0.465,0.236,0.626c0.162,0.157,0.371,0.238,0.627,0.238h8.162c0.26,0,0.469-0.076,0.625-0.228
			c0.162-0.152,0.242-0.356,0.242-0.617v-1.596c0-0.271-0.08-0.483-0.242-0.637c-0.156-0.152-0.365-0.226-0.625-0.226h-4.582
			c-0.118,0-0.219-0.04-0.294-0.115c-0.077-0.076-0.114-0.176-0.114-0.294v-2.943h3.783c0.623,0,0.936-0.313,0.936-0.936V94.92
			c0-0.623-0.303-0.937-0.912-0.937h-3.807V91.25C170.415,90.96,170.557,90.818,170.846,90.818z M149.699,90.818h4.583
			c0.275,0,0.488-0.081,0.641-0.237c0.151-0.162,0.228-0.372,0.228-0.627v-1.594c0-0.261-0.081-0.467-0.242-0.619
			c-0.156-0.152-0.365-0.228-0.626-0.228h-8.162c-0.256,0-0.466,0.081-0.627,0.237c-0.157,0.161-0.238,0.37-0.238,0.627v14.728
			c0,0.256,0.081,0.465,0.238,0.626c0.161,0.157,0.371,0.238,0.627,0.238h2.308c0.257,0,0.465-0.081,0.626-0.238
			c0.156-0.161,0.237-0.37,0.237-0.626v-5.792h3.784c0.621,0,0.936-0.313,0.936-0.936v-1.433c0-0.642-0.305-0.96-0.912-0.96h-3.808
			V91.25C149.291,90.96,149.428,90.818,149.699,90.818z M169.389,86.901c0.118,0.042,0.246,0.052,0.384,0.023l4.444-0.958
			c0.167-0.028,0.29-0.123,0.365-0.276c0.075-0.152,0.085-0.294,0.024-0.432l-0.456-1.409c-0.049-0.171-0.143-0.272-0.285-0.31
			c-0.147-0.038-0.295-0.019-0.446,0.059l-4.169,1.637c-0.151,0.062-0.26,0.152-0.317,0.275c-0.062,0.124-0.076,0.237-0.048,0.343
			l0.252,0.75C169.18,86.754,169.265,86.854,169.389,86.901z M130.333,87.708c-0.138-0.128-0.327-0.194-0.569-0.194h-4.648
			c-0.247,0-0.432,0.066-0.56,0.194c-0.128,0.128-0.218,0.291-0.261,0.49l-3.305,14.813c-0.061,0.275,0,0.503,0.181,0.683
			c0.185,0.185,0.404,0.275,0.66,0.275h2.075c0.241,0,0.432-0.066,0.56-0.195c0.128-0.128,0.208-0.29,0.237-0.489l0.413-1.961
			c0.043-0.228,0.171-0.341,0.385-0.341h3.556c0.123,0,0.219,0.038,0.294,0.114c0.077,0.076,0.124,0.161,0.138,0.251l0.413,1.937
			c0.042,0.214,0.133,0.38,0.271,0.503c0.138,0.119,0.318,0.181,0.545,0.181h2.417c0.261,0,0.471-0.095,0.627-0.285
			c0.162-0.189,0.209-0.422,0.147-0.692l-3.305-14.794C130.561,87.999,130.471,87.835,130.333,87.708z M125.889,97.678l1.411-6.836
			l1.438,6.836H125.889z M234.26,182.766c-3.612-0.375-7.33-0.73-11.145-1.065l-0.945,6.69L234.26,182.766z M52.246,181.701
			c-3.814,0.335-7.531,0.69-11.145,1.065l12.091,5.625L52.246,181.701z M212.028,179.833c-2.725-0.184-5.449-0.354-8.178-0.512
			v0.068c0,23.129-130.072,22.82-131.193,0.291c-2.735,0.17-5.47,0.355-8.205,0.555v1.078c0,32.494,147.575,32.666,147.575,0
			V179.833z M49.22,192.058l-18.624-8.664l-4.483-52.056c-9.289,0.78-18.03,1.681-26.113,2.69l15.394,30.037L5.313,195.727
			C18.511,194.208,33.286,192.966,49.22,192.058z M61.97,134.695l-1.638,15.202l5.937-0.519L61.97,134.695z M140.968,173.539
			c37.181,0,71.602,1.715,99.716,4.627l5.318-61.761c-29.038-3.261-65.473-5.203-105.034-5.203c-42.764,0-81.877,2.268-111.94,6.021
			l5.313,61.698C63.634,175.55,100.681,173.539,140.968,173.539z M204.917,161.024l2.815-32.18c0.049-0.565,0.256-1.006,0.617-1.325
			c0.364-0.321,0.813-0.457,1.353-0.41l17,1.488c0.538,0.045,0.958,0.259,1.261,0.637c0.302,0.378,0.428,0.848,0.379,1.414
			l-0.302,3.437c-0.109,1.262-0.767,1.841-1.971,1.735l-9.496-0.831c-0.603-0.054-0.93,0.236-0.985,0.867l-0.523,5.979l7.931,0.692
			c1.267,0.11,1.841,0.848,1.721,2.209l-0.278,3.188c-0.12,1.361-0.827,1.984-2.125,1.872l-7.883-0.69l-0.563,6.426
			c-0.022,0.266,0.038,0.489,0.182,0.668c0.143,0.182,0.341,0.281,0.595,0.303l9.545,0.836c0.538,0.047,0.959,0.251,1.262,0.611
			c0.305,0.362,0.429,0.842,0.377,1.439l-0.304,3.486c-0.051,0.565-0.255,0.998-0.616,1.303c-0.363,0.303-0.812,0.43-1.352,0.384
			l-17-1.488c-0.537-0.046-0.958-0.259-1.26-0.638C204.993,162.06,204.867,161.588,204.917,161.024z M174.59,126.761
			c0.068-1.331,0.738-1.964,2.008-1.897l13.28,0.696c1.144,0.06,2.181,0.315,3.11,0.764c0.932,0.449,1.711,1.05,2.341,1.801
			c0.63,0.75,1.108,1.625,1.438,2.628c0.331,1.002,0.464,2.102,0.4,3.3l-0.255,4.844c-0.068,1.298-0.531,2.551-1.391,3.759
			c-0.857,1.207-1.987,2.106-3.387,2.701c0.484,0.493,0.91,1.149,1.281,1.971c0.371,0.82,0.662,1.637,0.874,2.447l2.481,10.045
			c0.129,0.574,0.014,1.087-0.344,1.534c-0.357,0.449-0.869,0.656-1.535,0.622l-5.189-0.272c-0.508-0.026-0.889-0.173-1.146-0.437
			c-0.257-0.264-0.438-0.598-0.545-1.004l-2.531-11.801c-0.104-0.439-0.354-0.826-0.752-1.165c-0.395-0.339-0.815-0.519-1.26-0.542
			l-1.476-0.078l-0.659,12.584c-0.07,1.332-0.738,1.965-2.008,1.898l-4.57-0.24c-1.303-0.068-1.917-0.768-1.848-2.099
			L174.59,126.761z M141.188,132.667c0-1.167,0.189-2.25,0.572-3.251c0.379-1,0.914-1.858,1.596-2.574
			c0.684-0.717,1.494-1.276,2.432-1.675c0.937-0.402,1.979-0.601,3.122-0.601h12.3c0.539,0,0.968,0.176,1.285,0.525
			c0.318,0.35,0.479,0.808,0.479,1.375v3.451c0,0.566-0.168,1.024-0.502,1.374s-0.77,0.525-1.311,0.525h-8.437
			c-0.985,0-1.749,0.283-2.288,0.851c-0.541,0.566-0.812,1.415-0.812,2.549v14.802c0,1.066,0.271,1.9,0.812,2.5
			c0.539,0.6,1.318,0.9,2.336,0.9h1.811c0.254,0,0.461-0.092,0.619-0.275s0.239-0.408,0.239-0.676v-9.75
			c0-0.566,0.166-1.025,0.499-1.375c0.334-0.35,0.772-0.524,1.312-0.524h4.769c0.539,0,0.977,0.175,1.311,0.524s0.5,0.809,0.5,1.375
			v16.053c0,0.566-0.166,1.024-0.5,1.374s-0.771,0.524-1.311,0.524h-13.11c-1.144,0-2.193-0.201-3.146-0.599
			c-0.953-0.4-1.772-0.968-2.455-1.7c-0.684-0.734-1.207-1.593-1.574-2.576c-0.365-0.984-0.547-2.074-0.547-3.275V132.667z
			 M113.428,126.465c0-0.567,0.167-1.026,0.5-1.375c0.334-0.349,0.77-0.525,1.311-0.525h17.065c0.54,0,0.978,0.176,1.311,0.525
			c0.333,0.35,0.5,0.808,0.5,1.375v3.451c0,1.265-0.604,1.899-1.812,1.899h-9.533c-0.604,0-0.906,0.316-0.906,0.951v5.999h7.96
			c1.271,0,1.907,0.684,1.907,2.052v3.199c0,1.368-0.651,2.051-1.955,2.051h-7.913v6.45c0,0.268,0.08,0.484,0.238,0.65
			c0.159,0.166,0.366,0.25,0.62,0.25h9.582c0.54,0,0.978,0.168,1.311,0.5c0.333,0.333,0.5,0.8,0.5,1.4v3.5
			c0,0.567-0.167,1.017-0.5,1.351c-0.333,0.333-0.771,0.499-1.311,0.499H115.24c-0.541,0-0.977-0.175-1.311-0.524
			c-0.333-0.35-0.5-0.808-0.5-1.374V126.465z M86.551,125.42l4.621-0.161c1.271-0.044,1.929,0.601,1.976,1.932l0.903,25.888
			c0.01,0.265,0.105,0.488,0.286,0.665c0.181,0.175,0.398,0.261,0.653,0.251l9.433-0.328c1.27-0.045,1.929,0.6,1.975,1.932
			l0.113,3.247c0.047,1.333-0.565,2.022-1.835,2.067l-16.866,0.588c-1.27,0.044-1.928-0.6-1.974-1.933l-1.122-32.083
			C84.669,126.154,85.281,125.465,86.551,125.42z M51.143,162.447l4.053-32.981c0.058-0.439,0.208-0.813,0.453-1.118
			c0.244-0.307,0.62-0.481,1.125-0.527l9.688-0.846c0.506-0.046,0.915,0.062,1.224,0.319c0.309,0.256,0.531,0.596,0.664,1.02
			l9.714,31.727c0.179,0.587,0.12,1.103-0.176,1.547c-0.295,0.444-0.713,0.689-1.251,0.737l-5.034,0.439
			c-0.475,0.043-0.866-0.057-1.175-0.299c-0.308-0.24-0.53-0.589-0.666-1.046l-1.226-4.159c-0.048-0.197-0.16-0.371-0.332-0.523
			c-0.173-0.151-0.386-0.217-0.64-0.194l-7.407,0.647c-0.443,0.039-0.691,0.311-0.742,0.816l-0.48,4.36
			c-0.025,0.438-0.161,0.808-0.405,1.115c-0.245,0.306-0.62,0.48-1.126,0.524l-4.322,0.379c-0.538,0.047-1.014-0.113-1.429-0.479
			C51.239,163.542,51.068,163.056,51.143,162.447z M188.637,136.511l0.031-0.6c0.059-1.13-0.168-1.953-0.684-2.463
			c-0.514-0.511-1.263-0.792-2.246-0.845l-2.047-0.107c-0.253-0.013-0.48,0.068-0.682,0.24c-0.199,0.172-0.305,0.376-0.317,0.609
			l-0.316,6.042l2.856,0.15C187.391,139.65,188.525,138.641,188.637,136.511z M104.632,91.207c0.257-0.261,0.623-0.389,1.092-0.389
			h3.623c0.64,0,0.959-0.313,0.959-0.936v-1.433c0-0.621-0.314-0.936-0.936-0.936h-5.469c-0.546,0-1.044,0.09-1.496,0.275
			c-0.446,0.182-0.835,0.438-1.159,0.76c-0.327,0.328-0.584,0.721-0.765,1.178c-0.185,0.456-0.275,0.949-0.275,1.48v9.049
			c0,0.547,0.085,1.045,0.261,1.491c0.176,0.446,0.428,0.841,0.755,1.173c0.327,0.337,0.717,0.593,1.172,0.773
			c0.456,0.185,0.959,0.275,1.505,0.275h5.446c0.64,0,0.959-0.313,0.959-0.935v-1.458c0-0.607-0.314-0.911-0.936-0.911h-3.598
			c-0.49,0-0.864-0.139-1.131-0.409c-0.266-0.276-0.398-0.655-0.398-1.139v-6.75C104.244,91.853,104.372,91.463,104.632,91.207z"/>
	</g>
</g>
<path style="fill-rule:evenodd;clip-rule:evenodd;fill:#683132;" d="M78.807,179.316c9.605,14.77,112.654,16.42,119.257-0.311
	c-1.979-0.103-3.962-0.197-5.942-0.287c-13.373,10.878-89.142,9.548-106.542,0.238l-1.837,0.094
	C82.096,179.134,80.453,179.222,78.807,179.316L78.807,179.316z M198.399,27.881c0-19.43-120.317-17.131-120.317,0.229v80.72
	l1.93-0.107l1.996-0.107V29.606c-0.236-13.929,112.139-16.645,112.139-0.287v79.007c1.164,0.055,2.327,0.112,3.49,0.171l0.762,0.038
	V27.881L198.399,27.881z M179.987,60.4c-7.197,6.637-18.316-4.2-24.41,4.624c-0.309,0.448-0.609,0.751-0.893,0.936
	c-4.113,4.969-9.605,8.552-15.426,9.189c-4.064,0.446-6.09-2.412-6.508-5.187c-1.974-13.165,26.514-17.871,21.377-33.46
	c-1.61-4.885,0.578-4.512,2.461-2.582c4.884,5.003,6.068,11.672,4.787,18.19c5.926-2.734,13.592-2.669,18.48,1.01
	C182.734,55.288,182.193,58.367,179.987,60.4L179.987,60.4z M107.885,70.006c6.354-8.761-6.982-19.57,1.917-27.402
	c2.098-1.847,0.825-3.131-1.136-2.938c-13.799,1.361-17.359,22.171-8.791,31.139C102.628,73.684,105.938,72.691,107.885,70.006
	L107.885,70.006z"/>
</svg>
