<?xml version="1.0" encoding="UTF-8"?>
<!-- Generator: Adobe Illustrator 24.0.1, SVG Export Plug-In . SVG Version: 6.00 Build 0)  -->
<svg version="1.1" id="Layer_1" xmlns="http://www.w3.org/2000/svg" xmlns:xlink="http://www.w3.org/1999/xlink" x="0px" y="0px" viewBox="0 0 369.3 176.7" style="enable-background:new 0 0 369.3 176.7;" xml:space="preserve">
<style type="text/css">
	.st0{fill:#1E1E1C;}
	.st1{fill:#1E1F1D;}
</style>
<g>
	<g>
		<path class="st0" d="M154.3,145.8c-2.9-3.6-8.1-6-12.8-6c-9.5,0-17.4,8.2-17.4,17.6c0,4.5,1.9,8.6,5.1,11.8    c3.2,3,7.7,5.3,12.2,5.3c4.4,0,10-2.4,12.8-5.8v3.3c-3.6,3-8,4.8-12.7,4.8c-10.6,0-19.9-8.9-19.9-19.5c0-10.8,9.1-19.6,19.9-19.6    c4.6,0,9.3,1.8,12.6,5L154.3,145.8L154.3,145.8z"/>
		<path class="st0" d="M213.8,157.1c0,10.7-9.1,19.6-19.8,19.6s-19.8-8.9-19.8-19.6c0-10.7,9-19.6,19.8-19.6    C204.8,137.5,213.8,146.3,213.8,157.1z M176.7,157.1c0,9.4,7.8,17.3,17.4,17.3c9.5,0,17.4-7.9,17.4-17.3c0-9.4-7.9-17.3-17.4-17.3    C184.5,139.8,176.7,147.6,176.7,157.1z"/>
		<path class="st0" d="M237.4,140.3v13.9H250v2.3h-12.6v19.7h-2.4V138h15.4v2.3L237.4,140.3L237.4,140.3z"/>
		<path class="st0" d="M275,140.3v13.9h12.6v2.3H275v19.7h-2.4V138h15.4v2.3L275,140.3L275,140.3z"/>
		<path class="st0" d="M312.6,140.3v13.9H328v2.3h-15.4v17.5h15.8v2.3h-18.2V138h18.2v2.3L312.6,140.3L312.6,140.3z"/>
		<path class="st0" d="M353.5,140.3v13.9h15.4v2.3h-15.4v17.5h15.8v2.3H351V138h18.2v2.3L353.5,140.3L353.5,140.3z"/>
	</g>
	<path class="st0" d="M28.9,176.3v-20.2l-11.7,17.5L5.4,156.2v20.1h-5.9v-39.5l17.7,26.3l17.7-26.3v39.5H28.9z"/>
	<polygon class="st0" points="90,137 73.7,176.3 80.2,176.3 90,151.6 99.9,176.3 106.3,176.3  "/>
	<rect x="51.5" y="138" class="st0" width="6" height="38.3"/>
</g>
<path class="st0" d="M218.1,96.1L218.2,0l-33.8,50.4L150.6,0l0,96.1L218.1,96.1z M184.4,66.2l25-37.3v58.5h-50.1V28.9L184.4,66.2z"/>
<g>
	<path class="st1" d="M107.3,140c0.3-0.2,0.5-0.5,0.5-0.8c0-0.4-0.2-0.6-0.4-0.8c-0.2-0.1-0.4-0.2-0.7-0.2h-0.8v3.2h0.6v-1.2h0.2   c0,0,0.1,0.1,0.3,0.4l0.5,0.9h0.8l-0.6-1.1C107.5,140.2,107.4,140.1,107.3,140z M107.1,139.2c0,0.2-0.1,0.3-0.2,0.4   c-0.1,0-0.2,0.1-0.3,0.1h-0.1v-0.8h0.1c0.1,0,0.3,0,0.4,0.1C107.1,139,107.1,139,107.1,139.2z"/>
	<path class="st1" d="M106.8,136.9c-1.6,0-3,1.3-3,3s1.3,3,3,3s3-1.3,3-3C109.8,138.2,108.4,136.9,106.8,136.9z M109.2,139.8   c0,1.3-1.1,2.4-2.4,2.4s-2.4-1.1-2.4-2.4s1.1-2.4,2.4-2.4C108.1,137.5,109.2,138.5,109.2,139.8z"/>
</g>
</svg>